<?xml version="1.0" encoding="UTF-8" standalone="no"?>
<!DOCTYPE svg PUBLIC "-//W3C//DTD SVG 1.1//EN" "http://www.w3.org/Graphics/SVG/1.1/DTD/svg11.dtd">
<svg width="100%" height="100%" viewBox="0 0 512 512" version="1.1" xmlns="http://www.w3.org/2000/svg" xmlns:xlink="http://www.w3.org/1999/xlink" xml:space="preserve" xmlns:serif="http://www.serif.com/" style="fill-rule:evenodd;clip-rule:evenodd;stroke-linejoin:round;stroke-miterlimit:2;">
    <g transform="matrix(1,0,0,1,0.036801,-0.0715998)">
        <g transform="matrix(1.12012,0,0,1.16659,-30.7766,-26.8436)">
            <path d="M77.926,383.485L77.926,133.939C79.298,82.801 158.916,41.069 256.348,41.069C353.779,41.069 432.682,82.801 434.054,133.939L434.054,383.485C432.682,413.492 353.063,443.959 255.632,443.959C158.201,443.959 79.298,413.492 77.926,383.485Z" style="fill:rgb(54,27,15);"/>
        </g>
        <g transform="matrix(1,0,0,1,0,-0.25)">
            <path d="M77.926,234.329L77.831,210.181C116.033,233.677 168.647,252.716 256.95,251.323C324.989,250.249 380.569,242.38 434.149,210.181L434.054,234.329C432.682,264.336 353.063,288.823 255.632,288.823C158.201,288.823 79.298,264.336 77.926,234.329Z" style="fill:rgb(255,94,86);"/>
            <clipPath id="_clip1">
                <path d="M77.926,234.329L77.831,210.181C116.033,233.677 168.647,252.716 256.95,251.323C324.989,250.249 380.569,242.38 434.149,210.181L434.054,234.329C432.682,264.336 353.063,288.823 255.632,288.823C158.201,288.823 79.298,264.336 77.926,234.329Z"/>
            </clipPath>
            <g clip-path="url(#_clip1)">
                <g transform="matrix(1,0,0,1,0,-60)">
                    <path d="M77.926,479.329L77.831,206.181C116.033,229.677 168.647,248.716 256.95,247.323C324.989,246.249 380.569,238.38 434.149,206.181L434.054,479.329C432.682,509.336 353.063,533.823 255.632,533.823C158.201,533.823 79.298,509.336 77.926,479.329Z" style="fill:url(#_Linear2);"/>
                </g>
            </g>
        </g>
        <path d="M77.926,174.329L77.926,133.939C79.298,82.801 158.916,41.069 256.348,41.069C353.779,41.069 432.682,82.801 434.054,133.939L434.054,174.329C432.682,204.336 353.063,228.823 255.632,228.823C158.201,228.823 79.298,204.336 77.926,174.329Z" style="fill:rgb(255,199,86);"/>
        <clipPath id="_clip3">
            <path d="M77.926,174.329L77.926,133.939C79.298,82.801 158.916,41.069 256.348,41.069C353.779,41.069 432.682,82.801 434.054,133.939L434.054,174.329C432.682,204.336 353.063,228.823 255.632,228.823C158.201,228.823 79.298,204.336 77.926,174.329Z"/>
        </clipPath>
        <g clip-path="url(#_clip3)">
            <g transform="matrix(1,0,0,1,0,-60.25)">
                <path d="M77.926,479.329L77.831,206.181C116.033,229.677 168.647,248.716 256.95,247.323C324.989,246.249 380.569,238.38 434.149,206.181L434.054,479.329C432.682,509.336 353.063,533.823 255.632,533.823C158.201,533.823 79.298,509.336 77.926,479.329Z" style="fill:url(#_Linear4);"/>
            </g>
        </g>
        <g transform="matrix(1,0,0,1,0,59.5)">
            <path d="M77.926,234.329L77.831,210.181C116.033,233.677 168.647,252.716 256.95,251.323C324.989,250.249 380.569,242.38 434.149,210.181L434.054,234.329C432.682,264.336 353.063,288.823 255.632,288.823C158.201,288.823 79.298,264.336 77.926,234.329Z" style="fill:rgb(159,255,86);"/>
            <clipPath id="_clip5">
                <path d="M77.926,234.329L77.831,210.181C116.033,233.677 168.647,252.716 256.95,251.323C324.989,250.249 380.569,242.38 434.149,210.181L434.054,234.329C432.682,264.336 353.063,288.823 255.632,288.823C158.201,288.823 79.298,264.336 77.926,234.329Z"/>
            </clipPath>
            <g clip-path="url(#_clip5)">
                <g transform="matrix(1,0,0,1,0,-119.75)">
                    <path d="M77.926,479.329L77.831,206.181C116.033,229.677 168.647,248.716 256.95,247.323C324.989,246.249 380.569,238.38 434.149,206.181L434.054,479.329C432.682,509.336 353.063,533.823 255.632,533.823C158.201,533.823 79.298,509.336 77.926,479.329Z" style="fill:url(#_Linear6);"/>
                </g>
            </g>
        </g>
        <g transform="matrix(1,0,0,1,0,119.25)">
            <path d="M77.926,234.329L77.831,210.181C116.033,233.677 168.647,252.716 256.95,251.323C324.989,250.249 380.569,242.38 434.149,210.181L434.054,234.329C432.682,264.336 353.063,288.823 255.632,288.823C158.201,288.823 79.298,264.336 77.926,234.329Z" style="fill:rgb(149,79,0);"/>
            <clipPath id="_clip7">
                <path d="M77.926,234.329L77.831,210.181C116.033,233.677 168.647,252.716 256.95,251.323C324.989,250.249 380.569,242.38 434.149,210.181L434.054,234.329C432.682,264.336 353.063,288.823 255.632,288.823C158.201,288.823 79.298,264.336 77.926,234.329Z"/>
            </clipPath>
            <g clip-path="url(#_clip7)">
                <g transform="matrix(1,0,0,1,0,-179.5)">
                    <path d="M77.926,479.329L77.831,206.181C116.033,229.677 168.647,248.716 256.95,247.323C324.989,246.249 380.569,238.38 434.149,206.181L434.054,479.329C432.682,509.336 353.063,533.823 255.632,533.823C158.201,533.823 79.298,509.336 77.926,479.329Z" style="fill:url(#_Linear8);"/>
                </g>
            </g>
        </g>
        <g transform="matrix(1,0,0,1,0,179)">
            <path d="M77.926,234.329L77.831,210.181C116.033,233.677 168.647,252.716 256.95,251.323C324.989,250.249 380.569,242.38 434.149,210.181L434.054,234.329C432.682,264.336 353.063,288.823 255.632,288.823C158.201,288.823 79.298,264.336 77.926,234.329Z" style="fill:rgb(255,199,86);"/>
            <clipPath id="_clip9">
                <path d="M77.926,234.329L77.831,210.181C116.033,233.677 168.647,252.716 256.95,251.323C324.989,250.249 380.569,242.38 434.149,210.181L434.054,234.329C432.682,264.336 353.063,288.823 255.632,288.823C158.201,288.823 79.298,264.336 77.926,234.329Z"/>
            </clipPath>
            <g clip-path="url(#_clip9)">
                <g transform="matrix(1,0,0,1,0,-239.25)">
                    <path d="M77.926,479.329L77.831,206.181C116.033,229.677 168.647,248.716 256.95,247.323C324.989,246.249 380.569,238.38 434.149,206.181L434.054,479.329C432.682,509.336 353.063,533.823 255.632,533.823C158.201,533.823 79.298,509.336 77.926,479.329Z" style="fill:url(#_Linear10);"/>
                </g>
            </g>
        </g>
        <path d="M245.928,132.354C245.928,132.354 235.166,127.599 230.868,127.714C228.048,127.789 226.086,130.102 226.49,132.874C226.894,135.647 229.511,137.837 232.332,137.761C236.63,137.646 245.928,132.354 245.928,132.354ZM314.707,127.703C314.707,127.703 313.128,122.097 309.989,121.046C305.321,119.481 298.956,119.623 295.785,121.363C292.615,123.102 293.83,125.784 298.499,127.348C301.638,128.4 314.707,127.703 314.707,127.703ZM179.284,101.288C179.284,101.288 177.098,107.864 178.657,110.4C180.529,113.444 184.658,115.621 187.873,115.258C191.087,114.895 192.178,112.128 190.306,109.084C188.747,106.548 179.284,101.288 179.284,101.288ZM265.393,114.418C265.393,114.418 278.067,112.094 280.615,110.326C284.754,107.454 285.1,104.316 281.387,103.322C277.673,102.328 271.298,103.853 267.159,106.725C264.611,108.493 265.393,114.418 265.393,114.418ZM213.044,114.054C213.044,114.054 228.07,114.441 232.587,113.258C236.421,112.254 237.523,110.029 235.048,108.292C232.573,106.555 227.451,105.96 223.618,106.963C219.1,108.147 213.044,114.054 213.044,114.054ZM330.346,110.896C330.346,110.896 328.767,105.291 325.628,104.239C320.96,102.675 314.595,102.817 311.424,104.556C308.253,106.295 309.469,108.977 314.137,110.541C317.276,111.593 330.346,110.896 330.346,110.896ZM194.922,84.481C194.922,84.481 192.737,91.057 194.296,93.594C196.168,96.638 200.297,98.814 203.512,98.451C206.726,98.088 207.816,95.321 205.945,92.277C204.385,89.741 194.922,84.481 194.922,84.481ZM364.703,97.956C364.703,97.956 376.325,94.566 378.699,92.549C381.996,89.749 381.948,86.887 378.592,86.16C375.236,85.434 369.835,87.118 366.538,89.918C364.163,91.934 364.703,97.956 364.703,97.956ZM305.293,81.309C305.293,81.309 299.657,88.811 299.657,92.027C299.657,95.137 302.182,97.663 305.293,97.663C308.404,97.663 310.929,95.137 310.929,92.027C310.929,88.811 305.293,81.309 305.293,81.309ZM258.915,91.422C258.915,91.422 247.391,87.918 243.296,88.262C240.529,88.495 239.164,90.614 240.251,92.991C241.338,95.368 244.467,97.109 247.235,96.876C251.33,96.532 258.915,91.422 258.915,91.422ZM343.442,79.26C343.442,79.26 341.61,86.003 343.22,88.622C345.016,91.544 348.979,93.632 352.064,93.284C355.149,92.935 356.196,90.28 354.399,87.359C352.789,84.74 343.442,79.26 343.442,79.26ZM177.921,84.642C177.921,84.642 170.39,78.997 165.564,78.003C162.2,77.309 157.797,78.235 155.739,80.069C153.682,81.904 154.743,83.956 158.107,84.65C162.933,85.645 177.921,84.642 177.921,84.642ZM212.223,83.068C212.223,83.068 224.038,85.409 228.078,84.659C230.809,84.152 231.956,81.909 230.638,79.651C229.32,77.394 226.033,75.973 223.302,76.48C219.262,77.23 212.223,83.068 212.223,83.068ZM264.397,75.231C264.397,75.231 266.784,80.877 270.2,81.679C275.13,82.836 281.635,82.085 284.717,80.002C287.799,77.919 286.298,75.288 281.368,74.131C277.952,73.328 264.397,75.231 264.397,75.231ZM192.426,71.421C192.426,71.421 206.085,68.035 209.356,65.868C213.167,63.342 213.56,60.542 210.233,59.62C206.906,58.697 201.111,59.999 197.3,62.524C194.029,64.692 192.426,71.421 192.426,71.421ZM247.913,52.18C247.913,52.18 246.08,58.923 247.691,61.542C249.487,64.463 253.45,66.552 256.535,66.204C259.62,65.855 260.666,63.2 258.87,60.279C257.26,57.66 247.913,52.18 247.913,52.18ZM305.272,66.044C305.272,66.044 320.298,66.431 324.816,65.248C328.649,64.244 329.752,62.019 327.277,60.282C324.802,58.545 319.68,57.95 315.846,58.954C311.329,60.137 305.272,66.044 305.272,66.044Z" style="fill:white;"/>
    </g>
    <defs>
        <linearGradient id="_Linear2" x1="0" y1="0" x2="1" y2="0" gradientUnits="userSpaceOnUse" gradientTransform="matrix(108.291,0,0,108.291,91.4893,325.077)"><stop offset="0" style="stop-color:white;stop-opacity:0"/><stop offset="0.29" style="stop-color:white;stop-opacity:0.631373"/><stop offset="0.44" style="stop-color:white;stop-opacity:0.729412"/><stop offset="0.6" style="stop-color:white;stop-opacity:0.690196"/><stop offset="0.65" style="stop-color:white;stop-opacity:0.603922"/><stop offset="0.7" style="stop-color:white;stop-opacity:0.513725"/><stop offset="1" style="stop-color:white;stop-opacity:0"/></linearGradient>
        <linearGradient id="_Linear4" x1="0" y1="0" x2="1" y2="0" gradientUnits="userSpaceOnUse" gradientTransform="matrix(108.291,0,0,108.291,91.4893,325.077)"><stop offset="0" style="stop-color:white;stop-opacity:0"/><stop offset="0.29" style="stop-color:white;stop-opacity:0.631373"/><stop offset="0.44" style="stop-color:white;stop-opacity:0.729412"/><stop offset="0.6" style="stop-color:white;stop-opacity:0.690196"/><stop offset="0.65" style="stop-color:white;stop-opacity:0.603922"/><stop offset="0.7" style="stop-color:white;stop-opacity:0.513725"/><stop offset="1" style="stop-color:white;stop-opacity:0"/></linearGradient>
        <linearGradient id="_Linear6" x1="0" y1="0" x2="1" y2="0" gradientUnits="userSpaceOnUse" gradientTransform="matrix(108.291,0,0,108.291,91.4893,325.077)"><stop offset="0" style="stop-color:white;stop-opacity:0"/><stop offset="0.29" style="stop-color:white;stop-opacity:0.631373"/><stop offset="0.44" style="stop-color:white;stop-opacity:0.729412"/><stop offset="0.6" style="stop-color:white;stop-opacity:0.690196"/><stop offset="0.65" style="stop-color:white;stop-opacity:0.603922"/><stop offset="0.7" style="stop-color:white;stop-opacity:0.513725"/><stop offset="1" style="stop-color:white;stop-opacity:0"/></linearGradient>
        <linearGradient id="_Linear8" x1="0" y1="0" x2="1" y2="0" gradientUnits="userSpaceOnUse" gradientTransform="matrix(108.291,0,0,108.291,91.4893,325.077)"><stop offset="0" style="stop-color:white;stop-opacity:0"/><stop offset="0.29" style="stop-color:white;stop-opacity:0.631373"/><stop offset="0.44" style="stop-color:white;stop-opacity:0.729412"/><stop offset="0.6" style="stop-color:white;stop-opacity:0.690196"/><stop offset="0.65" style="stop-color:white;stop-opacity:0.603922"/><stop offset="0.7" style="stop-color:white;stop-opacity:0.513725"/><stop offset="1" style="stop-color:white;stop-opacity:0"/></linearGradient>
        <linearGradient id="_Linear10" x1="0" y1="0" x2="1" y2="0" gradientUnits="userSpaceOnUse" gradientTransform="matrix(108.291,0,0,108.291,91.4893,325.077)"><stop offset="0" style="stop-color:white;stop-opacity:0"/><stop offset="0.29" style="stop-color:white;stop-opacity:0.631373"/><stop offset="0.44" style="stop-color:white;stop-opacity:0.729412"/><stop offset="0.6" style="stop-color:white;stop-opacity:0.690196"/><stop offset="0.65" style="stop-color:white;stop-opacity:0.603922"/><stop offset="0.7" style="stop-color:white;stop-opacity:0.513725"/><stop offset="1" style="stop-color:white;stop-opacity:0"/></linearGradient>
    </defs>
</svg>
